<mxfile host="app.diagrams.net" modified="2022-03-08T22:10:58.546Z" agent="5.0 (Windows NT 10.0; Win64; x64) AppleWebKit/537.36 (KHTML, like Gecko) Chrome/99.0.4844.51 Safari/537.36" etag="3asN2tQv634sdRBItUQ0" version="17.0.0" type="github">
  <diagram name="Page-1" id="aaaa8250-4180-3840-79b5-4cada1eebb92">
    <mxGraphModel dx="362" dy="-346" grid="1" gridSize="10" guides="1" tooltips="1" connect="1" arrows="1" fold="1" page="1" pageScale="1" pageWidth="850" pageHeight="1100" background="none" math="0" shadow="0">
      <root>
        <mxCell id="0" />
        <mxCell id="1" parent="0" />
        <mxCell id="ca5ZKrN-SEigJA5lkIJ2-2" value="" style="verticalLabelPosition=bottom;html=1;verticalAlign=top;strokeWidth=1;align=center;outlineConnect=0;dashed=0;outlineConnect=0;shape=mxgraph.aws3d.end_user;strokeColor=none;fillColor=#777777;aspect=fixed;" vertex="1" parent="1">
          <mxGeometry x="1850" y="1310" width="49" height="100.46" as="geometry" />
        </mxCell>
        <mxCell id="ca5ZKrN-SEigJA5lkIJ2-4" value="" style="sketch=0;html=1;dashed=0;whitespace=wrap;fillColor=#2875E2;strokeColor=#ffffff;points=[[0.005,0.63,0],[0.1,0.2,0],[0.9,0.2,0],[0.5,0,0],[0.995,0.63,0],[0.72,0.99,0],[0.5,1,0],[0.28,0.99,0]];shape=mxgraph.kubernetes.icon;prIcon=api" vertex="1" parent="1">
          <mxGeometry x="2080" y="1470.46" width="120" height="139.54" as="geometry" />
        </mxCell>
        <mxCell id="ca5ZKrN-SEigJA5lkIJ2-1" value="" style="verticalLabelPosition=bottom;html=1;verticalAlign=top;strokeWidth=1;align=center;outlineConnect=0;dashed=0;outlineConnect=0;shape=mxgraph.aws3d.end_user;strokeColor=none;fillColor=#777777;aspect=fixed;" vertex="1" parent="1">
          <mxGeometry x="1860" y="1610" width="49" height="100.46" as="geometry" />
        </mxCell>
        <mxCell id="ca5ZKrN-SEigJA5lkIJ2-20" value="CrÃ©ditos" style="label;whiteSpace=wrap;html=1;image=img/clipart/Gear_128x128.png" vertex="1" parent="1">
          <mxGeometry x="2330" y="1460" width="140" height="60" as="geometry" />
        </mxCell>
        <mxCell id="ca5ZKrN-SEigJA5lkIJ2-21" value="Cuenta Bancaria" style="label;whiteSpace=wrap;html=1;image=img/clipart/Gear_128x128.png" vertex="1" parent="1">
          <mxGeometry x="2330" y="1560" width="140" height="60" as="geometry" />
        </mxCell>
        <mxCell id="ca5ZKrN-SEigJA5lkIJ2-25" value="" style="shape=flexArrow;endArrow=classic;startArrow=classic;html=1;rounded=0;" edge="1" parent="1">
          <mxGeometry width="100" height="100" relative="1" as="geometry">
            <mxPoint x="2200" y="1539.73" as="sourcePoint" />
            <mxPoint x="2310" y="1490" as="targetPoint" />
          </mxGeometry>
        </mxCell>
        <mxCell id="ca5ZKrN-SEigJA5lkIJ2-26" value="" style="shape=flexArrow;endArrow=classic;startArrow=classic;html=1;rounded=0;" edge="1" parent="1" source="ca5ZKrN-SEigJA5lkIJ2-4">
          <mxGeometry width="100" height="100" relative="1" as="geometry">
            <mxPoint x="2210" y="1660" as="sourcePoint" />
            <mxPoint x="2310" y="1590" as="targetPoint" />
          </mxGeometry>
        </mxCell>
        <mxCell id="ca5ZKrN-SEigJA5lkIJ2-27" value="" style="shape=flexArrow;endArrow=classic;startArrow=classic;html=1;rounded=0;entryX=0;entryY=0.498;entryDx=0;entryDy=0;entryPerimeter=0;" edge="1" parent="1" target="ca5ZKrN-SEigJA5lkIJ2-4">
          <mxGeometry width="100" height="100" relative="1" as="geometry">
            <mxPoint x="1920" y="1410" as="sourcePoint" />
            <mxPoint x="1920" y="1410" as="targetPoint" />
          </mxGeometry>
        </mxCell>
        <mxCell id="ca5ZKrN-SEigJA5lkIJ2-28" value="" style="shape=flexArrow;endArrow=classic;startArrow=classic;html=1;rounded=0;" edge="1" parent="1">
          <mxGeometry width="100" height="100" relative="1" as="geometry">
            <mxPoint x="1930" y="1670" as="sourcePoint" />
            <mxPoint x="2070" y="1560" as="targetPoint" />
          </mxGeometry>
        </mxCell>
        <mxCell id="ca5ZKrN-SEigJA5lkIJ2-29" value="" style="shape=datastore;whiteSpace=wrap;html=1;" vertex="1" parent="1">
          <mxGeometry x="2600" y="1470.46" width="100" height="99.54" as="geometry" />
        </mxCell>
        <mxCell id="ca5ZKrN-SEigJA5lkIJ2-30" value="" style="shape=flexArrow;endArrow=classic;startArrow=classic;html=1;rounded=0;" edge="1" parent="1">
          <mxGeometry width="100" height="100" relative="1" as="geometry">
            <mxPoint x="2590" y="1520.19" as="sourcePoint" />
            <mxPoint x="2480" y="1490" as="targetPoint" />
          </mxGeometry>
        </mxCell>
        <mxCell id="ca5ZKrN-SEigJA5lkIJ2-31" value="" style="shape=flexArrow;endArrow=classic;startArrow=classic;html=1;rounded=0;" edge="1" parent="1">
          <mxGeometry width="100" height="100" relative="1" as="geometry">
            <mxPoint x="2590" y="1538.2558823529412" as="sourcePoint" />
            <mxPoint x="2480" y="1590" as="targetPoint" />
          </mxGeometry>
        </mxCell>
        <mxCell id="ca5ZKrN-SEigJA5lkIJ2-32" value="Personal" style="text;html=1;strokeColor=none;fillColor=none;align=center;verticalAlign=middle;whiteSpace=wrap;rounded=0;" vertex="1" parent="1">
          <mxGeometry x="1840" y="1420" width="60" height="30" as="geometry" />
        </mxCell>
        <mxCell id="ca5ZKrN-SEigJA5lkIJ2-33" value="Empresa" style="text;html=1;strokeColor=none;fillColor=none;align=center;verticalAlign=middle;whiteSpace=wrap;rounded=0;" vertex="1" parent="1">
          <mxGeometry x="1840" y="1720" width="60" height="30" as="geometry" />
        </mxCell>
      </root>
    </mxGraphModel>
  </diagram>
</mxfile>
